<svg version="1.1" xmlns="http://www.w3.org/2000/svg" xmlns:xlink="http://www.w3.org/1999/xlink" width="533" height="535"><defs/><g><g transform="translate(-204,-126) scale(1,1)"><rect fill="#C0C0C0" stroke="none" x="221" y="143" width="386" height="235" opacity="0.2"/></g><g transform="translate(-204,-126) scale(1,1)"><rect fill="#ffffff" stroke="none" x="214" y="136" width="386" height="235"/></g><g transform="translate(-204,-126) scale(1,1)"><path fill="none" stroke="#000000" d="M 214 136 L 600 136 L 600 371 L 214 371 L 214 136 Z Z" stroke-miterlimit="10"/></g><g transform="translate(-204,-126) scale(1,1)"><path fill="none" stroke="#000000" d="M 214 161 L 600 161" stroke-miterlimit="10"/></g><g transform="translate(-204,-126) scale(1,1)"><path fill="none" stroke="#000000" d="M 214 199 L 600 199" stroke-miterlimit="10"/></g><g transform="translate(-204,-126) scale(1,1)"><g><path fill="none" stroke="none"/><text fill="#000000" stroke="none" font-family="Arial" font-size="13px" font-style="normal" font-weight="bold" text-decoration="none" x="366.5" y="155.5">JedisManager</text></g></g><g transform="translate(-204,-126) scale(1,1)"><g><path fill="none" stroke="none"/><text fill="#000000" stroke="none" font-family="Arial" font-size="13px" font-style="normal" font-weight="normal" text-decoration="none" x="219" y="178.5">-pool: JedisPool</text></g></g><g transform="translate(-204,-126) scale(1,1)"><g><path fill="none" stroke="none"/><text fill="#000000" stroke="none" font-family="Arial" font-size="13px" font-style="normal" font-weight="normal" text-decoration="none" x="219" y="193.5">+jedisManager: JedisManager</text><path fill="none" stroke="#000000" d="M 219 193.5 L 393 193.5" stroke-miterlimit="10"/></g></g><g transform="translate(-204,-126) scale(1,1)"><g><path fill="none" stroke="none"/><text fill="#000000" stroke="none" font-family="Arial" font-size="13px" font-style="normal" font-weight="normal" text-decoration="none" x="219" y="216.5">+getResource(): Jedis</text></g></g><g transform="translate(-204,-126) scale(1,1)"><g><path fill="none" stroke="none"/><text fill="#000000" stroke="none" font-family="Arial" font-size="13px" font-style="normal" font-weight="normal" text-decoration="none" x="219" y="231.5">+closeResource(jedis: Jedis)</text></g></g><g transform="translate(-204,-126) scale(1,1)"><g><path fill="none" stroke="none"/><text fill="#000000" stroke="none" font-family="Arial" font-size="13px" font-style="normal" font-weight="normal" text-decoration="none" x="219" y="246.5">+destroyPool()</text></g></g><g transform="translate(-204,-126) scale(1,1)"><g><path fill="none" stroke="none"/><text fill="#000000" stroke="none" font-family="Arial" font-size="13px" font-style="normal" font-weight="normal" text-decoration="none" x="219" y="261.5">+save(object: JedisObject)</text></g></g><g transform="translate(-204,-126) scale(1,1)"><g><path fill="none" stroke="none"/><text fill="#000000" stroke="none" font-family="Arial" font-size="13px" font-style="normal" font-weight="normal" text-decoration="none" x="219" y="276.5">+retrieve(id: String, bean: T): &lt;T extends JedisObject&gt;</text></g></g><g transform="translate(-204,-126) scale(1,1)"><g><path fill="none" stroke="none"/><text fill="#000000" stroke="none" font-family="Arial" font-size="13px" font-style="normal" font-weight="normal" text-decoration="none" x="219" y="291.5">+retrieveAllFromClass(bean: T): List&lt;T extends JedisObject&gt;</text></g></g><g transform="translate(-204,-126) scale(1,1)"><g><path fill="none" stroke="none"/><text fill="#000000" stroke="none" font-family="Arial" font-size="13px" font-style="normal" font-weight="normal" text-decoration="none" x="219" y="306.5">+delete(object: JedisObject)</text></g></g><g transform="translate(-204,-126) scale(1,1)"><g><path fill="none" stroke="none"/><text fill="#000000" stroke="none" font-family="Arial" font-size="13px" font-style="normal" font-weight="normal" text-decoration="none" x="219" y="321.5">-retrieveAllFromClass(bean: T, : List&lt;T extends JedisObject&gt;)</text></g></g><g transform="translate(-204,-126) scale(1,1)"><g><path fill="none" stroke="none"/><text fill="#000000" stroke="none" font-family="Arial" font-size="13px" font-style="normal" font-weight="normal" text-decoration="none" x="219" y="336.5">-populateObject(object: Object, properties: Map&lt;String, String&gt;)</text></g></g><g transform="translate(-204,-126) scale(1,1)"><g><path fill="none" stroke="none"/><text fill="#000000" stroke="none" font-family="Arial" font-size="13px" font-style="normal" font-weight="normal" text-decoration="none" x="219" y="351.5">+getPool(): JedisPool</text></g></g><g transform="translate(-204,-126) scale(1,1)"><g><path fill="none" stroke="none"/><text fill="#000000" stroke="none" font-family="Arial" font-size="13px" font-style="normal" font-weight="normal" text-decoration="none" x="219" y="366.5">+getInstance(): JedisManager</text><path fill="none" stroke="#000000" d="M 219 366.5 L 392 366.5" stroke-miterlimit="10"/></g></g><g transform="translate(-204,-126) scale(1,1)"><rect fill="#C0C0C0" stroke="none" x="351" y="541" width="123" height="117" opacity="0.2"/></g><g transform="translate(-204,-126) scale(1,1)"><rect fill="#ffffff" stroke="none" x="344" y="534" width="123" height="117"/></g><g transform="translate(-204,-126) scale(1,1)"><path fill="none" stroke="#000000" d="M 344 534 L 467 534 L 467 651 L 344 651 L 344 534 Z Z" stroke-miterlimit="10"/></g><g transform="translate(-204,-126) scale(1,1)"><path fill="none" stroke="#000000" d="M 344 559 L 467 559" stroke-miterlimit="10"/></g><g transform="translate(-204,-126) scale(1,1)"><path fill="none" stroke="#000000" d="M 344 569 L 467 569" stroke-miterlimit="10"/></g><g transform="translate(-204,-126) scale(1,1)"><g><path fill="none" stroke="none"/><text fill="#000000" stroke="none" font-family="Arial" font-size="13px" font-style="italic" font-weight="bold" text-decoration="none" x="371" y="553.5">JedisObject</text></g></g><g transform="translate(-204,-126) scale(1,1)"><g><path fill="none" stroke="none"/><text fill="#000000" stroke="none" font-family="Arial" font-size="13px" font-style="italic" font-weight="normal" text-decoration="none" x="349" y="586.5">+validate(): boolean</text></g></g><g transform="translate(-204,-126) scale(1,1)"><g><path fill="none" stroke="none"/><text fill="#000000" stroke="none" font-family="Arial" font-size="13px" font-style="normal" font-weight="normal" text-decoration="none" x="349" y="601.5">+save()</text></g></g><g transform="translate(-204,-126) scale(1,1)"><g><path fill="none" stroke="none"/><text fill="#000000" stroke="none" font-family="Arial" font-size="13px" font-style="normal" font-weight="normal" text-decoration="none" x="349" y="616.5">+delete()</text></g></g><g transform="translate(-204,-126) scale(1,1)"><g><path fill="none" stroke="none"/><text fill="#000000" stroke="none" font-family="Arial" font-size="13px" font-style="italic" font-weight="normal" text-decoration="none" x="349" y="631.5">+getId(): String</text></g></g><g transform="translate(-204,-126) scale(1,1)"><g><path fill="none" stroke="none"/><text fill="#000000" stroke="none" font-family="Arial" font-size="13px" font-style="normal" font-weight="normal" text-decoration="none" x="349" y="646.5">+clone(): Object</text></g></g><g transform="translate(-204,-126) scale(1,1)"><path fill="none" stroke="#000000" d="M 405 533 L 406 372" stroke-miterlimit="10"/></g><g transform="translate(-204,-126) scale(1,1)"><g><path fill="none" stroke="none"/><text fill="#000000" stroke="none" font-family="Arial" font-size="13px" font-style="normal" font-weight="normal" text-decoration="none" x="414.5" y="517.5">*</text></g></g><g transform="translate(-204,-126) scale(1,1)"><g><path fill="none" stroke="none"/><text fill="#000000" stroke="none" font-family="Arial" font-size="13px" font-style="normal" font-weight="normal" text-decoration="none" x="414.5" y="399.5">1</text></g></g><g transform="translate(-204,-126) scale(1,1)"><path fill="#C0C0C0" stroke="none" d="M 655 546.5 C 655 540.1487248 660.1487248 535 666.5 535 C 672.8512752 535 678 540.1487248 678 546.5 C 678 552.8512752 672.8512752 558 666.5 558 C 660.1487248 558 655 552.8512752 655 546.5 Z" opacity="0.2"/></g><g transform="translate(-204,-126) scale(1,1)"><path fill="#ffffff" stroke="none" d="M 648 539.5 C 648 533.1487248 653.1487248 528 659.5 528 C 665.8512752 528 671 533.1487248 671 539.5 C 671 545.8512752 665.8512752 551 659.5 551 C 653.1487248 551 648 545.8512752 648 539.5 Z"/></g><g transform="translate(-204,-126) scale(1,1)"><path fill="none" stroke="#000000" d="M 648 539.5 C 648 533.1487248 653.1487248 528 659.5 528 C 665.8512752 528 671 533.1487248 671 539.5 C 671 545.8512752 665.8512752 551 659.5 551 C 653.1487248 551 648 545.8512752 648 539.5 Z" stroke-miterlimit="10"/></g><g transform="translate(-204,-126) scale(1,1)"><g><path fill="none" stroke="none"/><text fill="#000000" stroke="none" font-family="Arial" font-size="13px" font-style="normal" font-weight="bold" text-decoration="none" x="599.5" y="570.5">JedisObjectInterface</text></g></g></g></svg>