<svg version="1.1" xmlns="http://www.w3.org/2000/svg" xmlns:xlink="http://www.w3.org/1999/xlink" width="839" height="480"><defs/><g><g transform="translate(-86,-78) scale(1,1)"><rect fill="#C0C0C0" stroke="none" x="103" y="175" width="203" height="117" opacity="0.2"/></g><g transform="translate(-86,-78) scale(1,1)"><rect fill="#ffffff" stroke="none" x="96" y="168" width="203" height="117"/></g><g transform="translate(-86,-78) scale(1,1)"><path fill="none" stroke="#000000" d="M 96 168 L 299 168 L 299 285 L 96 285 L 96 168 Z Z" stroke-miterlimit="10"/></g><g transform="translate(-86,-78) scale(1,1)"><path fill="none" stroke="#000000" d="M 96 193 L 299 193" stroke-miterlimit="10"/></g><g transform="translate(-86,-78) scale(1,1)"><path fill="none" stroke="#000000" d="M 96 276 L 299 276" stroke-miterlimit="10"/></g><g transform="translate(-86,-78) scale(1,1)"><g><path fill="none" stroke="none"/><text fill="#000000" stroke="none" font-family="Arial" font-size="13px" font-style="normal" font-weight="bold" text-decoration="none" x="160.5" y="187.5">Parametrizer</text></g></g><g transform="translate(-86,-78) scale(1,1)"><g><path fill="none" stroke="none"/><text fill="#000000" stroke="none" font-family="Arial" font-size="13px" font-style="normal" font-weight="normal" text-decoration="none" x="101" y="210.5">-businessEntityType: EntityType</text></g></g><g transform="translate(-86,-78) scale(1,1)"><g><path fill="none" stroke="none"/><text fill="#000000" stroke="none" font-family="Arial" font-size="13px" font-style="normal" font-weight="normal" text-decoration="none" x="101" y="225.5">-typeOfService: EntityType</text></g></g><g transform="translate(-86,-78) scale(1,1)"><g><path fill="none" stroke="none"/><text fill="#000000" stroke="none" font-family="Arial" font-size="13px" font-style="normal" font-weight="normal" text-decoration="none" x="101" y="240.5">-products: ProductStore</text></g></g><g transform="translate(-86,-78) scale(1,1)"><g><path fill="none" stroke="none"/><text fill="#000000" stroke="none" font-family="Arial" font-size="13px" font-style="normal" font-weight="normal" text-decoration="none" x="101" y="255.5">-economyClimate: Economy</text></g></g><g transform="translate(-86,-78) scale(1,1)"><g><path fill="none" stroke="none"/><text fill="#000000" stroke="none" font-family="Arial" font-size="13px" font-style="normal" font-weight="normal" text-decoration="none" x="101" y="270.5">-companyName: String</text></g></g><g transform="translate(-86,-78) scale(1,1)"><rect fill="#C0C0C0" stroke="none" x="519" y="223" width="403" height="100" opacity="0.2"/></g><g transform="translate(-86,-78) scale(1,1)"><rect fill="#ffffff" stroke="none" x="512" y="216" width="403" height="100"/></g><g transform="translate(-86,-78) scale(1,1)"><path fill="none" stroke="#000000" d="M 512 216 L 915 216 L 915 316 L 512 316 L 512 216 Z Z" stroke-miterlimit="10"/></g><g transform="translate(-86,-78) scale(1,1)"><path fill="none" stroke="#000000" d="M 512 241 L 915 241" stroke-miterlimit="10"/></g><g transform="translate(-86,-78) scale(1,1)"><path fill="none" stroke="#000000" d="M 512 264 L 915 264" stroke-miterlimit="10"/></g><g transform="translate(-86,-78) scale(1,1)"><g><path fill="none" stroke="none"/><text fill="#000000" stroke="none" font-family="Arial" font-size="13px" font-style="normal" font-weight="bold" text-decoration="none" x="657.5" y="235.5">CompanyGenerator</text></g></g><g transform="translate(-86,-78) scale(1,1)"><g><path fill="none" stroke="none"/><text fill="#000000" stroke="none" font-family="Arial" font-size="13px" font-style="normal" font-weight="normal" text-decoration="none" x="517" y="258.5">-company: Company</text></g></g><g transform="translate(-86,-78) scale(1,1)"><g><path fill="none" stroke="none"/><text fill="#000000" stroke="none" font-family="Arial" font-size="13px" font-style="normal" font-weight="normal" text-decoration="none" x="517" y="281.5">+generateCompany(entityType, typeOfService, products): Company</text></g></g><g transform="translate(-86,-78) scale(1,1)"><g><path fill="none" stroke="none"/><text fill="#000000" stroke="none" font-family="Arial" font-size="13px" font-style="normal" font-weight="normal" text-decoration="none" x="517" y="296.5">+getCurrentCompany(): Company</text></g></g><g transform="translate(-86,-78) scale(1,1)"><g><path fill="none" stroke="none"/><text fill="#000000" stroke="none" font-family="Arial" font-size="13px" font-style="normal" font-weight="normal" text-decoration="none" x="517" y="311.5">+generateDefaultCompany(): Company</text></g></g><g transform="translate(-86,-78) scale(1,1)"><rect fill="#C0C0C0" stroke="none" x="383" y="95" width="132" height="90" opacity="0.2"/></g><g transform="translate(-86,-78) scale(1,1)"><rect fill="#ffffff" stroke="none" x="376" y="88" width="132" height="90"/></g><g transform="translate(-86,-78) scale(1,1)"><path fill="none" stroke="#000000" d="M 376 88 L 508 88 L 508 178 L 376 178 L 376 88 Z Z" stroke-miterlimit="10"/></g><g transform="translate(-86,-78) scale(1,1)"><path fill="none" stroke="#000000" d="M 376 126 L 508 126" stroke-miterlimit="10"/></g><g transform="translate(-86,-78) scale(1,1)"><g><path fill="none" stroke="none"/><text fill="#000000" stroke="none" font-family="Arial" font-size="13px" font-style="normal" font-weight="normal" text-decoration="none" x="399.5" y="105.5">«enumeration»</text></g></g><g transform="translate(-86,-78) scale(1,1)"><g><path fill="none" stroke="none"/><text fill="#000000" stroke="none" font-family="Arial" font-size="13px" font-style="normal" font-weight="bold" text-decoration="none" x="410.5" y="120.5">EntityType</text></g></g><g transform="translate(-86,-78) scale(1,1)"><g><path fill="none" stroke="none"/><text fill="#000000" stroke="none" font-family="Arial" font-size="13px" font-style="normal" font-weight="normal" text-decoration="none" x="381" y="143.5">GLOBAL</text></g></g><g transform="translate(-86,-78) scale(1,1)"><g><path fill="none" stroke="none"/><text fill="#000000" stroke="none" font-family="Arial" font-size="13px" font-style="normal" font-weight="normal" text-decoration="none" x="381" y="158.5">INTERNATIONAL</text></g></g><g transform="translate(-86,-78) scale(1,1)"><g><path fill="none" stroke="none"/><text fill="#000000" stroke="none" font-family="Arial" font-size="13px" font-style="normal" font-weight="normal" text-decoration="none" x="381" y="173.5">DOMESTIC</text></g></g><g transform="translate(-86,-78) scale(1,1)"><path fill="none" stroke="#000000" d="M 375 158 L 300 187" stroke-miterlimit="10"/></g><g transform="translate(-86,-78) scale(1,1)"><path fill="#000000" stroke="none" d="M 307.9606158489367 179.40864996817706 L 300 187 L 310.99690053506697 187.26111036334152 L 320.5194678709608 179.06580575656182"/></g><g transform="translate(-86,-78) scale(1,1)"><path fill="none" stroke="#000000" d="M 307.9606158489367 179.40864996817706 L 300 187 L 310.99690053506697 187.26111036334152 L 320.5194678709608 179.06580575656182 L 307.9606158489367 179.40864996817706" stroke-miterlimit="10"/></g><g transform="translate(-86,-78) scale(1,1)"><g><path fill="none" stroke="none"/><text fill="#000000" stroke="none" font-family="Arial" font-size="13px" font-style="normal" font-weight="normal" text-decoration="none" x="346.5" y="160.5">1</text></g></g><g transform="translate(-86,-78) scale(1,1)"><g><path fill="none" stroke="none"/><text fill="#000000" stroke="none" font-family="Arial" font-size="13px" font-style="normal" font-weight="normal" text-decoration="none" x="311.5" y="173.5">1</text></g></g><g transform="translate(-86,-78) scale(1,1)"><path fill="none" stroke="#000000" d="M 300 234 L 511 250" stroke-miterlimit="10"/></g><g transform="translate(-86,-78) scale(1,1)"><rect fill="#C0C0C0" stroke="none" x="408" y="483" width="155" height="72" opacity="0.2"/></g><g transform="translate(-86,-78) scale(1,1)"><rect fill="#ffffff" stroke="none" x="401" y="476" width="155" height="72"/></g><g transform="translate(-86,-78) scale(1,1)"><path fill="none" stroke="#000000" d="M 401 476 L 556 476 L 556 548 L 401 548 L 401 476 Z Z" stroke-miterlimit="10"/></g><g transform="translate(-86,-78) scale(1,1)"><path fill="none" stroke="#000000" d="M 401 501 L 556 501" stroke-miterlimit="10"/></g><g transform="translate(-86,-78) scale(1,1)"><path fill="none" stroke="#000000" d="M 401 539 L 556 539" stroke-miterlimit="10"/></g><g transform="translate(-86,-78) scale(1,1)"><g><path fill="none" stroke="none"/><text fill="#000000" stroke="none" font-family="Arial" font-size="13px" font-style="normal" font-weight="bold" text-decoration="none" x="451" y="495.5">Economy</text></g></g><g transform="translate(-86,-78) scale(1,1)"><g><path fill="none" stroke="none"/><text fill="#000000" stroke="none" font-family="Arial" font-size="13px" font-style="normal" font-weight="normal" text-decoration="none" x="406" y="518.5">-growth: float</text></g></g><g transform="translate(-86,-78) scale(1,1)"><g><path fill="none" stroke="none"/><text fill="#000000" stroke="none" font-family="Arial" font-size="13px" font-style="normal" font-weight="normal" text-decoration="none" x="406" y="533.5">-sectorConcurrency: float</text></g></g><g transform="translate(-86,-78) scale(1,1)"><path fill="none" stroke="#000000" d="M 442 475 L 256 286" stroke-miterlimit="10"/></g><g transform="translate(-86,-78) scale(1,1)"><path fill="#000000" stroke="none" d="M 266.12867460317443 290.2906818552544 L 256 286 L 260.12808426057217 296.196024732101 L 271.4314045955688 301.68029821807795"/></g><g transform="translate(-86,-78) scale(1,1)"><path fill="none" stroke="#000000" d="M 266.12867460317443 290.2906818552544 L 256 286 L 260.12808426057217 296.196024732101 L 271.4314045955688 301.68029821807795 L 266.12867460317443 290.2906818552544" stroke-miterlimit="10"/></g><g transform="translate(-86,-78) scale(1,1)"><g><path fill="none" stroke="none"/><text fill="#000000" stroke="none" font-family="Arial" font-size="13px" font-style="normal" font-weight="normal" text-decoration="none" x="431.5" y="456.5">1</text></g></g><g transform="translate(-86,-78) scale(1,1)"><g><path fill="none" stroke="none"/><text fill="#000000" stroke="none" font-family="Arial" font-size="13px" font-style="normal" font-weight="normal" text-decoration="none" x="276.5" y="298.5">1</text></g></g><g transform="translate(-86,-78) scale(1,1)"><rect fill="#C0C0C0" stroke="none" x="130" y="481" width="196" height="44" opacity="0.2"/></g><g transform="translate(-86,-78) scale(1,1)"><rect fill="#ffffff" stroke="none" x="123" y="474" width="196" height="44"/></g><g transform="translate(-86,-78) scale(1,1)"><path fill="none" stroke="#000000" d="M 123 474 L 319 474 L 319 518 L 123 518 L 123 474 Z Z" stroke-miterlimit="10"/></g><g transform="translate(-86,-78) scale(1,1)"><path fill="none" stroke="#000000" d="M 123 499 L 319 499" stroke-miterlimit="10"/></g><g transform="translate(-86,-78) scale(1,1)"><path fill="none" stroke="#000000" d="M 123 509 L 319 509" stroke-miterlimit="10"/></g><g transform="translate(-86,-78) scale(1,1)"><g><path fill="none" stroke="none"/><text fill="#000000" stroke="none" font-family="Arial" font-size="13px" font-style="normal" font-weight="bold" text-decoration="none" x="136.5" y="493.5">SupplyChainControlSimulator</text></g></g><g transform="translate(-86,-78) scale(1,1)"><path fill="none" stroke="#000000" d="M 202 286 L 219 473" stroke-miterlimit="10"/></g><g transform="translate(-86,-78) scale(1,1)"><path fill="#000000" stroke="none" d="M 213.88768451425594 463.2601729802721 L 219 473 L 222.27214478569894 462.49794931923185 L 217.00821358706457 451.09034945771054"/></g><g transform="translate(-86,-78) scale(1,1)"><path fill="none" stroke="#000000" d="M 213.88768451425594 463.2601729802721 L 219 473 L 222.27214478569894 462.49794931923185 L 217.00821358706457 451.09034945771054 L 213.88768451425594 463.2601729802721" stroke-miterlimit="10"/></g><g transform="translate(-86,-78) scale(1,1)"><g><path fill="none" stroke="none"/><text fill="#000000" stroke="none" font-family="Arial" font-size="13px" font-style="normal" font-weight="normal" text-decoration="none" x="187.5" y="314.5">1</text></g></g><g transform="translate(-86,-78) scale(1,1)"><g><path fill="none" stroke="none"/><text fill="#000000" stroke="none" font-family="Arial" font-size="13px" font-style="normal" font-weight="normal" text-decoration="none" x="200.5" y="458.5">1</text></g></g></g></svg>