<?xml version="1.0" encoding="UTF-8" standalone="no"?>
<!DOCTYPE svg PUBLIC "-//W3C//DTD SVG 1.1//EN" "http://www.w3.org/Graphics/SVG/1.1/DTD/svg11.dtd">
<svg version="1.1" xmlns="http://www.w3.org/2000/svg" xmlns:xlink="http://www.w3.org/1999/xlink" preserveAspectRatio="xMidYMid meet" viewBox="0 0 172 100" width="172" height="100"><defs><path d="M171.48 48.29C171.48 63.98 146.5 76.71 115.73 76.71C84.96 76.71 59.99 63.98 59.99 48.29C59.99 32.6 83.93 19.53 114.7 19.53C145.47 19.53 171.48 32.6 171.48 48.29Z" id="a1NvJGzthg"></path><path d="M94.28 5.74C104.04 11.85 107.8 23.35 102.69 31.43C97.57 39.51 85.51 41.1 75.75 35C65.99 28.89 62.22 17.39 52.46 0C72.46 1.23 84.52 -0.36 94.28 5.74Z" id="hrcIDpg7W"></path><path d="M94.57 95.13C104.33 89.03 107.85 77.13 102.42 68.57C97 60.01 84.69 58.02 74.93 64.13C65.17 70.24 61.66 82.13 52.2 100C72.5 99.25 84.81 101.24 94.57 95.13Z" id="b2a2o9owXi"></path><path d="M16.18 33.27L29.68 23.95L29.89 42.27L30.11 60.59L16.4 51.59L2.69 42.58L16.18 33.27Z" id="a7jw5WqyMM"></path><path d="M16.36 47.22L30.03 38.16L29.89 56.48L29.76 74.8L16.22 65.54L2.69 56.29L16.36 47.22Z" id="g5treDSCjJ"></path><path d="M30.03 19.35L127.69 19.35L127.69 76.97L30.03 76.97L30.03 19.35Z" id="cwEne5wKJ"></path><path d="M115.73 48.16C115.73 57.7 107.47 65.45 97.3 65.45C87.12 65.45 78.87 57.7 78.87 48.16C78.87 38.62 87.12 30.88 97.3 30.88C107.47 30.88 115.73 38.62 115.73 48.16Z" id="jtAoibMAO"></path><path d="M30.03 19.22L16.4 19.22L16.4 76.84L30.03 76.84L30.03 19.22Z" id="g2VY8hvexQ"></path><path d="" id="dZHfiObc1"></path></defs><g><g><g><use xlink:href="#a1NvJGzthg" opacity="1" fill="#45415d" fill-opacity="1"></use></g><g><use xlink:href="#hrcIDpg7W" opacity="1" fill="#c02640" fill-opacity="1"></use><g><use xlink:href="#hrcIDpg7W" opacity="1" fill-opacity="0" stroke="#ededed" stroke-width="0" stroke-opacity="1"></use></g></g><g><use xlink:href="#b2a2o9owXi" opacity="1" fill="#c02640" fill-opacity="1"></use><g><use xlink:href="#b2a2o9owXi" opacity="1" fill-opacity="0" stroke="#2f6349" stroke-width="0" stroke-opacity="1"></use></g></g><g><use xlink:href="#a7jw5WqyMM" opacity="0.85" fill="#ffe354" fill-opacity="1"></use><g><use xlink:href="#a7jw5WqyMM" opacity="0.85" fill-opacity="0" stroke="#f69201" stroke-width="2" stroke-opacity="1"></use></g></g><g><use xlink:href="#g5treDSCjJ" opacity="1" fill="#efe157" fill-opacity="1"></use><g><use xlink:href="#g5treDSCjJ" opacity="1" fill-opacity="0" stroke="#f69201" stroke-width="2" stroke-opacity="1"></use></g></g><g><use xlink:href="#cwEne5wKJ" opacity="1" fill="#ededed" fill-opacity="1"></use></g><g><use xlink:href="#jtAoibMAO" opacity="1" fill="#22c4db" fill-opacity="1"></use><g><use xlink:href="#jtAoibMAO" opacity="1" fill-opacity="0" stroke="#45415d" stroke-width="3" stroke-opacity="1"></use></g></g><g><use xlink:href="#g2VY8hvexQ" opacity="1" fill="#45415d" fill-opacity="1"></use></g><g><g><use xlink:href="#dZHfiObc1" opacity="1" fill-opacity="0" stroke="#1a1e1d" stroke-width="20" stroke-opacity="1"></use></g></g></g></g></svg>